<?xml version="1.0" encoding="UTF-8" standalone="no"?>
<svg
   xmlns:dc="http://purl.org/dc/elements/1.1/"
   xmlns:cc="http://creativecommons.org/ns#"
   xmlns:rdf="http://www.w3.org/1999/02/22-rdf-syntax-ns#"
   xmlns:svg="http://www.w3.org/2000/svg"
   xmlns="http://www.w3.org/2000/svg"
   xmlns:sodipodi="http://sodipodi.sourceforge.net/DTD/sodipodi-0.dtd"
   xmlns:inkscape="http://www.inkscape.org/namespaces/inkscape"
   inkscape:version="1.0 (4035a4fb49, 2020-05-01)"
   sodipodi:docname="Get-Edit.svg"
   id="svg38"
   enable-background="new 0 0 232 232"
   viewBox="0 0 232 232"
   version="1.1">
  <metadata
     id="metadata44">
    <rdf:RDF>
      <cc:Work
         rdf:about="">
        <dc:format>image/svg+xml</dc:format>
        <dc:type
           rdf:resource="http://purl.org/dc/dcmitype/StillImage" />
        <dc:title></dc:title>
      </cc:Work>
    </rdf:RDF>
  </metadata>
  <defs
     id="defs42" />
  <sodipodi:namedview
     inkscape:current-layer="layer2"
     inkscape:window-maximized="1"
     inkscape:window-y="-11"
     inkscape:window-x="-11"
     inkscape:cy="110.01625"
     inkscape:cx="50.772178"
     inkscape:zoom="3.4482759"
     showgrid="false"
     id="namedview40"
     inkscape:window-height="986"
     inkscape:window-width="1920"
     inkscape:pageshadow="2"
     inkscape:pageopacity="0"
     guidetolerance="10"
     gridtolerance="10"
     objecttolerance="10"
     borderopacity="1"
     bordercolor="#666666"
     pagecolor="#ffffff" />
  <g
     inkscape:label="Layer 1"
     id="layer1"
     inkscape:groupmode="layer">
    <g
       transform="matrix(1.1048413,0,0,1.1048413,4.3733917,28.879112)"
       id="g56">
	<path
   style="clip-rule:evenodd;display:none;fill:#2671be;fill-rule:evenodd"
   d="m -47.547,226.872 c 0,-97.129 0.094,-194.259 -0.195,-291.387 -0.021,-6.982 1.404,-8.411 8.388,-8.389 94.397,0.292 188.798,0.292 283.195,0 6.984,-0.022 8.41,1.407 8.389,8.389 -0.289,97.128 -0.195,194.258 -0.195,291.387 -3.238,2.008 -6.837,1.129 -10.268,1.131 -93.015,0.049 -186.031,0.049 -279.047,0 -3.431,-0.002 -7.03,0.877 -10.267,-1.131 z"
   id="path46" />

	
	<path
   style="clip-rule:evenodd;fill:#2671be;fill-rule:evenodd"
   d="M 85.365,149.813 C 62.351,149.805 39.336,149.911 16.323,149.76 4.653,149.684 2.531,146.93 5.158,135.516 14.064,96.806 23.257,58.161 31.965,19.407 34.3,9.013 39.337,4.419 50.473,4.522 c 46.024,0.427 92.056,0.137 138.083,0.184 11.543,0.011 13.481,2.48 10.89,14.187 -8.413,38.007 -16.879,76.003 -25.494,113.965 -3.224,14.207 -6.938,16.918 -21.885,16.951 -22.234,0.047 -44.469,0.012 -66.702,0.004 z"
   id="path50" />

	
	
</g>
  </g>
  <g
     style="display:inline"
     inkscape:label="Layer 2"
     id="layer2"
     inkscape:groupmode="layer">
    <g
       transform="matrix(1.1314551,0,0,1.1314551,-16.992194,-14.643363)"
       id="g924">
      <g
         id="g36"
         transform="matrix(0.40234782,0,0,0.37080633,71.937648,70.47)"
         style="fill:#ffffff">
        <rect
           width="230"
           x="1"
           y="199"
           height="33"
           id="rect28"
           ry="15.637594"
           style="fill:#ffffff" />
        <rect
           width="230"
           x="1"
           y="133"
           height="33"
           id="rect30"
           ry="14.926795"
           style="fill:#ffffff" />
        <rect
           width="230"
           x="1"
           y="67"
           height="33"
           id="rect32"
           ry="14.926795"
           style="fill:#ffffff" />
        <rect
           width="230"
           x="1"
           height="33"
           id="rect34"
           y="0"
           ry="16.5"
           style="fill:#ffffff" />
      </g>
      <rect
         style="fill:none;stroke:#dfffff;stroke-width:0.983069;stroke-opacity:0.776923"
         id="rect93"
         width="102.70252"
         height="99.835205"
         x="67.983734"
         y="63.352264"
         ry="6.8422894" />
    </g>
  </g>
</svg>
